<svg  viewBox="0 0 101 24" fill="none" xmlns="http://www.w3.org/2000/svg">
<path d="M98.0571 10.662V15.486C98.0571 15.822 98.1351 16.068 98.2911 16.224C98.4591 16.368 98.7351 16.44 99.1191 16.44H100.289V18.564H98.7051C96.5811 18.564 95.5191 17.532 95.5191 15.468V10.662H94.3311V8.59198H95.5191V6.12598H98.0571V8.59198H100.289V10.662H98.0571Z" fill="white"/>
<path d="M89.8443 18.726C89.0283 18.726 88.2963 18.582 87.6483 18.294C87.0003 17.994 86.4843 17.592 86.1003 17.088C85.7283 16.584 85.5243 16.026 85.4883 15.414H88.0263C88.0743 15.798 88.2603 16.116 88.5843 16.368C88.9203 16.62 89.3343 16.746 89.8263 16.746C90.3063 16.746 90.6783 16.65 90.9423 16.458C91.2183 16.266 91.3563 16.02 91.3563 15.72C91.3563 15.396 91.1883 15.156 90.8523 15C90.5283 14.832 90.0063 14.652 89.2863 14.46C88.5423 14.28 87.9303 14.094 87.4503 13.902C86.9823 13.71 86.5743 13.416 86.2263 13.02C85.8903 12.624 85.7223 12.09 85.7223 11.418C85.7223 10.866 85.8783 10.362 86.1903 9.90599C86.5143 9.44999 86.9703 9.08999 87.5583 8.82599C88.1583 8.56199 88.8603 8.42999 89.6643 8.42999C90.8523 8.42999 91.8003 8.72999 92.5083 9.32999C93.2163 9.91799 93.6063 10.716 93.6783 11.724H91.2663C91.2303 11.328 91.0623 11.016 90.7623 10.788C90.4743 10.548 90.0843 10.428 89.5923 10.428C89.1363 10.428 88.7823 10.512 88.5303 10.68C88.2903 10.848 88.1703 11.082 88.1703 11.382C88.1703 11.718 88.3383 11.976 88.6743 12.156C89.0103 12.324 89.5323 12.498 90.2403 12.678C90.9603 12.858 91.5543 13.044 92.0223 13.236C92.4903 13.428 92.8923 13.728 93.2283 14.136C93.5763 14.532 93.7563 15.06 93.7683 15.72C93.7683 16.296 93.6063 16.812 93.2823 17.268C92.9703 17.724 92.5143 18.084 91.9143 18.348C91.3263 18.6 90.6363 18.726 89.8443 18.726Z" fill="white"/>
<path d="M84.9248 13.362C84.9248 13.722 84.9008 14.046 84.8528 14.334H77.5628C77.6228 15.054 77.8748 15.618 78.3188 16.026C78.7628 16.434 79.3088 16.638 79.9568 16.638C80.8928 16.638 81.5588 16.236 81.9548 15.432H84.6728C84.3848 16.392 83.8328 17.184 83.0168 17.808C82.2008 18.42 81.1988 18.726 80.0108 18.726C79.0508 18.726 78.1868 18.516 77.4188 18.096C76.6628 17.664 76.0688 17.058 75.6368 16.278C75.2168 15.498 75.0068 14.598 75.0068 13.578C75.0068 12.546 75.2168 11.64 75.6368 10.86C76.0568 10.08 76.6448 9.47999 77.4008 9.05999C78.1568 8.63999 79.0268 8.42999 80.0108 8.42999C80.9588 8.42999 81.8048 8.63399 82.5488 9.04199C83.3048 9.44999 83.8868 10.032 84.2948 10.788C84.7148 11.532 84.9248 12.39 84.9248 13.362ZM82.3148 12.642C82.3028 11.994 82.0688 11.478 81.6128 11.094C81.1568 10.698 80.5988 10.5 79.9388 10.5C79.3148 10.5 78.7868 10.692 78.3548 11.076C77.9348 11.448 77.6768 11.97 77.5808 12.642H82.3148Z" fill="white"/>
<path d="M66.5957 10.032C66.9197 9.57599 67.3637 9.19799 67.9277 8.89799C68.5037 8.58599 69.1577 8.42999 69.8897 8.42999C70.7417 8.42999 71.5097 8.63999 72.1937 9.05999C72.8897 9.47999 73.4357 10.08 73.8317 10.86C74.2397 11.628 74.4437 12.522 74.4437 13.542C74.4437 14.562 74.2397 15.468 73.8317 16.26C73.4357 17.04 72.8897 17.646 72.1937 18.078C71.5097 18.51 70.7417 18.726 69.8897 18.726C69.1577 18.726 68.5097 18.576 67.9457 18.276C67.3937 17.976 66.9437 17.598 66.5957 17.142V23.316H64.0757V8.59199H66.5957V10.032ZM71.8697 13.542C71.8697 12.942 71.7437 12.426 71.4917 11.994C71.2517 11.55 70.9277 11.214 70.5197 10.986C70.1237 10.758 69.6917 10.644 69.2237 10.644C68.7677 10.644 68.3357 10.764 67.9277 11.004C67.5317 11.232 67.2077 11.568 66.9557 12.012C66.7157 12.456 66.5957 12.978 66.5957 13.578C66.5957 14.178 66.7157 14.7 66.9557 15.144C67.2077 15.588 67.5317 15.93 67.9277 16.17C68.3357 16.398 68.7677 16.512 69.2237 16.512C69.6917 16.512 70.1237 16.392 70.5197 16.152C70.9277 15.912 71.2517 15.57 71.4917 15.126C71.7437 14.682 71.8697 14.154 71.8697 13.542Z" fill="white"/>
<path d="M59.0056 8.448C60.2296 8.448 61.2136 8.826 61.9576 9.582C62.7136 10.326 63.0916 11.37 63.0916 12.714V18.564H60.5716V13.056C60.5716 12.276 60.3736 11.682 59.9776 11.274C59.5816 10.854 59.0416 10.644 58.3576 10.644C57.6736 10.644 57.1276 10.854 56.7196 11.274C56.3236 11.682 56.1256 12.276 56.1256 13.056V18.564H53.6056V13.056C53.6056 12.276 53.4076 11.682 53.0116 11.274C52.6156 10.854 52.0756 10.644 51.3916 10.644C50.6956 10.644 50.1436 10.854 49.7356 11.274C49.3396 11.682 49.1416 12.276 49.1416 13.056V18.564H46.6216V8.592H49.1416V9.798C49.4656 9.378 49.8796 9.048 50.3836 8.808C50.8996 8.568 51.4636 8.448 52.0756 8.448C52.8556 8.448 53.5516 8.616 54.1636 8.952C54.7756 9.276 55.2496 9.744 55.5856 10.356C55.9096 9.78 56.3776 9.318 56.9896 8.97C57.6136 8.622 58.2856 8.448 59.0056 8.448Z" fill="white"/>
<path d="M45.6241 13.362C45.6241 13.722 45.6001 14.046 45.5521 14.334H38.2621C38.3221 15.054 38.5741 15.618 39.0181 16.026C39.4621 16.434 40.0081 16.638 40.6561 16.638C41.5921 16.638 42.2581 16.236 42.6541 15.432H45.3721C45.0841 16.392 44.5321 17.184 43.7161 17.808C42.9001 18.42 41.8981 18.726 40.7101 18.726C39.7501 18.726 38.8861 18.516 38.1181 18.096C37.3621 17.664 36.7681 17.058 36.3361 16.278C35.9161 15.498 35.7061 14.598 35.7061 13.578C35.7061 12.546 35.9161 11.64 36.3361 10.86C36.7561 10.08 37.3441 9.47999 38.1001 9.05999C38.8561 8.63999 39.7261 8.42999 40.7101 8.42999C41.6581 8.42999 42.5041 8.63399 43.2481 9.04199C44.0041 9.44999 44.5861 10.032 44.9941 10.788C45.4141 11.532 45.6241 12.39 45.6241 13.362ZM43.0141 12.642C43.0021 11.994 42.7681 11.478 42.3121 11.094C41.8561 10.698 41.2981 10.5 40.6381 10.5C40.0141 10.5 39.4861 10.692 39.0541 11.076C38.6341 11.448 38.3761 11.97 38.2801 12.642H43.0141Z" fill="white"/>
<path d="M37.216 6V8.034H33.868V18.564H31.348V8.034H28V6H37.216Z" fill="white"/>
<mask id="mask0_18_26" style="mask-type:luminance" maskUnits="userSpaceOnUse" x="1" y="0" width="22" height="24">
<path d="M22.7503 11.9953C22.7503 18.1482 17.9837 23.1361 12.1039 23.1361C6.22411 23.1361 1.45752 18.1482 1.45752 11.9953C1.45752 5.84236 6.22402 0.854492 12.1039 0.854492C15.4113 0.854492 18.3665 2.43273 20.3192 4.90867C21.2617 6.10377 21.9707 7.50806 22.373 9.04492C22.619 9.98457 22.7503 10.9739 22.7503 11.9952V11.9953Z" fill="white"/>
</mask>
<g mask="url(#mask0_18_26)">
<path d="M22.7464 12.0046C22.7464 18.1576 17.9798 23.1454 12.1 23.1454C6.22021 23.1454 1.45361 18.1575 1.45361 12.0046C1.45361 5.8518 6.22021 0.863831 12.1 0.863831C15.4074 0.863831 18.3626 2.44207 20.3153 4.91801C21.2578 6.11311 21.9668 7.5174 22.3691 9.05426C22.6151 9.99391 22.7464 10.9832 22.7464 12.0045V12.0046Z" fill="#1B1429"/>
<path d="M3.19102 5.89426C3.51157 5.54251 7.39246 1.42517 12.9158 2.29426C16.5201 2.86143 18.6912 5.2165 19.319 5.95186C14.8335 2.31096 8.78581 3.75835 6.86782 7.24786C5.27547 10.1449 6.36334 14.7519 10.0925 17.3926C9.37717 17.2199 6.4533 16.4279 4.49662 13.5455C2.17688 10.1281 3.0453 6.46613 3.19102 5.89426Z" fill="#29ABE2"/>
<path d="M16.7041 18.4416C16.7969 18.128 16.8897 17.8145 16.9825 17.5008C17.8301 16.9879 19.4993 15.8081 20.5537 13.6512C22.5671 9.53244 20.5813 5.44409 20.3137 4.91522C20.923 5.51225 22.8781 7.57903 23.0497 10.7232C23.1216 12.0409 22.8579 13.1382 22.5985 13.8912C22.1214 15.2763 21.1673 16.0407 20.6689 16.4832C19.2035 17.7846 17.6076 18.2552 16.7041 18.4416Z" fill="#0071BC"/>
<path d="M1.60595 13.8925C1.4127 12.8499 1.2185 10.9942 1.8377 8.84145C2.20058 7.57982 2.73482 6.59178 3.1913 5.89425C2.78426 10.0495 4.1921 14.0539 7.0409 15.811C10.7981 18.1286 15.6175 17.1224 18.3765 14.1474C21.9056 10.3417 20.3924 5.12903 20.3235 4.90564C20.6607 5.55815 22.4931 9.25377 20.9091 13.1136C20.0089 15.3072 18.415 16.5553 17.6547 17.136C17.0993 17.5602 14.722 19.3062 11.4953 19.4206C5.48982 19.6335 1.83472 14.2419 1.60595 13.8925Z" fill="#00E7FF"/>
<path d="M3.45618 17.0784C3.38744 17.5654 4.68229 18.3788 9.65778 19.8144C13.0329 18.0228 14.694 15.8759 15.4562 14.688C16.118 13.6564 16.3729 12.9257 16.3778 12.144C16.3913 9.97703 14.4769 8.48211 14.045 8.16003C14.8292 9.91703 15.3963 12.0373 14.477 13.6512C12.3396 17.4037 3.62926 15.8526 3.45618 17.0784Z" fill="#29ABE2"/>
<path d="M1.60596 13.8925C2.27172 19.155 6.79677 23.1444 12.1001 23.1454C17.4054 23.1465 21.9332 19.1559 22.5987 13.8912C22.2485 14.3849 18.6537 19.2679 12.2153 19.3246C5.63748 19.3826 1.93169 14.3515 1.60596 13.8925Z" fill="#0071BC"/>
</g>
<path d="M9.73438 19.2283C14.2534 16.9284 16.6617 13.4801 15.7824 10.6154C15.594 10.0019 15.1596 9.10452 14.0448 8.15997C14.6521 8.39325 15.139 8.67175 15.5328 8.96311C19.4448 11.8577 16.9534 18.0867 16.704 18.6852C16.1218 18.976 15.1823 19.3624 13.9392 19.5419C12.0152 19.8198 10.4561 19.4446 9.73438 19.2283Z" fill="#0071BC"/>
</svg>
