<svg width="116" height="121" viewBox="0 0 116 121" fill="none" xmlns="http://www.w3.org/2000/svg">
	<mask
		id="mask0_19_2"
		style="mask-type: luminance"
		maskUnits="userSpaceOnUse"
		x="0"
		y="0"
		width="116"
		height="121"
	>
		<path
			d="M116 60.5C116 93.9133 90.0322 121 57.9999 121C25.9677 121 0 93.9133 0 60.5C0 27.0866 25.9672 0 57.9999 0C76.0182 0 92.1177 8.5706 102.756 22.0162C107.89 28.5061 111.753 36.1321 113.945 44.478C115.285 49.5808 116 54.9539 116 60.5Z"
			fill="white"
		/>
	</mask>
	<g mask="url(#mask0_19_2)">
		<path
			d="M-0.417262 44.0925C0.404554 41.6383 10.6653 12.627 40.0849 4.74069C59.283 -0.405405 75.2805 6.48957 80.026 8.75319C49.6717 0.587571 22.7415 21.1313 20.8734 42.6901C19.3225 60.5886 34.8841 81.0551 59.2695 85.9263C55.327 86.6491 39.0224 89.1761 22.9316 79.1898C3.85472 67.3497 0.116241 47.2532 -0.417262 44.0925Z"
			fill="#29ABE2"
		/>
		<path
			d="M83.0612 95.5066C83.5667 93.8036 84.0723 92.1011 84.5779 90.3976C89.1955 87.6123 98.289 81.2054 104.033 69.4924C115.002 47.1255 104.184 24.9238 102.726 22.0517C106.045 25.2939 116.696 36.5175 117.631 53.5919C118.023 60.7477 116.586 66.7065 115.173 70.7957C112.574 78.3175 107.376 82.4685 104.661 84.8715C96.6775 91.9388 87.9833 94.4943 83.0612 95.5066Z"
			fill="#0071BC"
		/>
		<path
			d="M0.808627 70.8027C-0.244171 65.1409 -1.30214 55.0635 2.07117 43.3731C4.04809 36.5218 6.95855 31.1563 9.44539 27.3683C7.22789 49.9334 14.8976 71.6792 30.4175 81.2211C50.8861 93.8068 77.1415 88.3427 92.1722 72.187C111.398 51.5202 103.154 23.2128 102.779 21.9997C104.616 25.5431 114.599 45.6122 105.969 66.5729C101.065 78.4852 92.3819 85.263 88.2399 88.4165C85.2142 90.7201 72.263 100.202 54.6844 100.823C21.9674 101.979 2.05493 72.7001 0.808627 70.8027Z"
			fill="#00E7FF"
		/>
		<path
			d="M10.8884 88.1037C10.5139 90.7484 17.5681 95.1656 44.6738 102.962C63.061 93.2323 72.1104 81.5736 76.2628 75.1227C79.8682 69.5206 81.2568 65.5526 81.2835 61.3076C81.3571 49.5398 70.9277 41.4217 68.5748 39.6727C72.847 49.214 75.9365 60.7281 70.9283 69.4924C59.284 89.8703 11.8313 81.4471 10.8884 88.1037Z"
			fill="#29ABE2"
		/>
		<path
			d="M0.808678 70.8028C4.43564 99.3807 29.0875 121.045 57.9792 121.051C86.8818 121.056 111.549 99.3856 115.174 70.7957C113.266 73.4767 93.6823 99.9938 58.6068 100.302C22.7718 100.617 2.58321 73.2954 0.808678 70.8028Z"
			fill="#0071BC"
		/>
	</g>
	<path
		d="M45.0911 99.7788C69.7101 87.2892 82.8302 68.5632 78.0399 53.0065C77.0135 49.6749 74.6469 44.8017 68.5737 39.6723C71.8821 40.9392 74.5347 42.4515 76.6801 44.0338C97.9921 59.7528 84.4193 93.5793 83.0606 96.8295C79.8889 98.4086 74.7706 100.507 67.9984 101.482C57.5167 102.991 49.0229 100.953 45.0911 99.7788Z"
		fill="#0071BC"
	/>
</svg>
