<svg width="226" height="48" viewBox="0 0 226 48" fill="none" xmlns="http://www.w3.org/2000/svg">
<path d="M225.308 0.355338L216.117 11.9941L223.918 11.7911L205.266 28.0977L209.353 17.9782H203.114L210.587 0.355011L225.308 0.355338Z" fill="white"/>
<path d="M194.198 12.923V26.2952C194.198 27.2266 194.414 27.9085 194.847 28.3409C195.312 28.7401 196.078 28.9397 197.142 28.9397H200.385V34.8274H195.994C190.107 34.8274 187.163 31.9667 187.163 26.2453V12.923H183.87V7.18498H187.163V0.349213H194.198V7.18498H200.385V12.923H194.198Z" fill="white"/>
<path d="M171.433 35.2765C169.171 35.2765 167.142 34.8773 165.346 34.079C163.55 33.2474 162.119 32.133 161.055 30.7359C160.024 29.3389 159.458 27.7921 159.358 26.0956H166.394C166.527 27.1601 167.042 28.0416 167.941 28.7401C168.872 29.4386 170.02 29.7879 171.383 29.7879C172.714 29.7879 173.745 29.5218 174.477 28.9896C175.242 28.4574 175.625 27.7754 175.625 26.9438C175.625 26.0457 175.159 25.3804 174.227 24.948C173.329 24.4823 171.882 23.9833 169.886 23.4511C167.824 22.9522 166.128 22.4366 164.797 21.9043C163.5 21.3721 162.369 20.5571 161.404 19.4594C160.473 18.3617 160.007 16.8815 160.007 15.0187C160.007 13.4885 160.439 12.0914 161.304 10.8274C162.202 9.56337 163.467 8.56545 165.096 7.83365C166.76 7.10184 168.706 6.73593 170.934 6.73593C174.227 6.73593 176.855 7.56753 178.818 9.23074C180.78 10.8607 181.862 13.0727 182.061 15.8669H175.375C175.275 14.7692 174.81 13.9043 173.978 13.2723C173.18 12.607 172.099 12.2744 170.735 12.2744C169.471 12.2744 168.489 12.5072 167.791 12.9729C167.126 13.4386 166.793 14.0873 166.793 14.9189C166.793 15.8503 167.259 16.5655 168.19 17.0644C169.121 17.5301 170.568 18.0124 172.531 18.5114C174.527 19.0104 176.173 19.526 177.471 20.0582C178.768 20.5904 179.882 21.422 180.814 22.553C181.778 23.6507 182.277 25.1143 182.311 26.9438C182.311 28.5405 181.862 29.9709 180.963 31.2349C180.099 32.4989 178.835 33.4969 177.171 34.2287C175.541 34.9272 173.629 35.2765 171.433 35.2765Z" fill="white"/>
<path d="M157.796 20.4075C157.796 21.4054 157.729 22.3035 157.596 23.1018H137.388C137.555 25.0977 138.253 26.6611 139.484 27.7921C140.715 28.923 142.228 29.4885 144.025 29.4885C146.619 29.4885 148.465 28.3742 149.563 26.1455H157.097C156.299 28.8066 154.769 31.0021 152.507 32.7318C150.245 34.4282 147.467 35.2765 144.174 35.2765C141.513 35.2765 139.118 34.6944 136.989 33.5301C134.894 32.3326 133.247 30.6528 132.05 28.4906C130.885 26.3285 130.303 23.8337 130.303 21.0062C130.303 18.1455 130.885 15.6341 132.05 13.4719C133.214 11.3097 134.844 9.64654 136.939 8.4823C139.035 7.31805 141.447 6.73593 144.174 6.73593C146.802 6.73593 149.147 7.30142 151.21 8.4324C153.305 9.56337 154.919 11.1767 156.05 13.2723C157.214 15.3347 157.796 17.7131 157.796 20.4075ZM150.561 18.4116C150.528 16.6154 149.879 15.185 148.615 14.1206C147.351 13.0228 145.804 12.474 143.975 12.474C142.245 12.474 140.781 13.0062 139.584 14.0707C138.42 15.1018 137.704 16.5488 137.438 18.4116H150.561Z" fill="white"/>
<path d="M106.988 11.1767C107.887 9.91265 109.117 8.86483 110.681 8.03323C112.277 7.16836 114.09 6.73593 116.119 6.73593C118.481 6.73593 120.61 7.31805 122.506 8.4823C124.435 9.64654 125.949 11.3097 127.047 13.4719C128.178 15.6008 128.743 18.079 128.743 20.9064C128.743 23.7339 128.178 26.2453 127.047 28.4407C125.949 30.6029 124.435 32.2827 122.506 33.4802C120.61 34.6777 118.481 35.2765 116.119 35.2765C114.09 35.2765 112.294 34.8607 110.731 34.0291C109.2 33.1975 107.953 32.1497 106.988 30.8856V48H100.003V7.185H106.988V11.1767ZM121.608 20.9064C121.608 19.2432 121.259 17.8129 120.56 16.6154C119.895 15.3846 118.997 14.4532 117.866 13.8212C116.768 13.1892 115.571 12.8731 114.273 12.8731C113.009 12.8731 111.812 13.2058 110.681 13.8711C109.583 14.5031 108.685 15.4345 107.986 16.6653C107.321 17.896 106.988 19.343 106.988 21.0062C106.988 22.6694 107.321 24.1164 107.986 25.3472C108.685 26.5779 109.583 27.526 110.681 28.1912C111.812 28.8233 113.009 29.1393 114.273 29.1393C115.571 29.1393 116.768 28.8066 117.866 28.1413C118.997 27.4761 119.895 26.528 120.56 25.2973C121.259 24.0665 121.608 22.6029 121.608 20.9064Z" fill="white"/>
<path d="M85.9476 6.78598C89.3406 6.78598 92.0682 7.8338 94.1306 9.92943C96.2262 11.9918 97.2741 14.8858 97.2741 18.6114V34.8276H90.2886V19.5594C90.2886 17.3972 89.7397 15.7506 88.642 14.6197C87.5443 13.4554 86.0474 12.8733 84.1514 12.8733C82.2553 12.8733 80.7418 13.4554 79.6108 14.6197C78.5131 15.7506 77.9643 17.3972 77.9643 19.5594V34.8276H70.9788V19.5594C70.9788 17.3972 70.43 15.7506 69.3322 14.6197C68.2345 13.4554 66.7377 12.8733 64.8416 12.8733C62.9123 12.8733 61.3821 13.4554 60.2512 14.6197C59.1534 15.7506 58.6046 17.3972 58.6046 19.5594V34.8276H51.6191V7.18515H58.6046V10.5282C59.5027 9.36395 60.6503 8.44919 62.0474 7.7839C63.4778 7.11862 65.0412 6.78598 66.7377 6.78598C68.8998 6.78598 70.8291 7.25168 72.5256 8.18307C74.2221 9.0812 75.536 10.3785 76.4674 12.075C77.3655 10.4783 78.6628 9.19763 80.3593 8.23297C82.089 7.26831 83.9518 6.78598 85.9476 6.78598Z" fill="white"/>
<path d="M48.8541 20.4075C48.8541 21.4054 48.7875 22.3035 48.6545 23.1018H28.4466C28.6129 25.0977 29.3114 26.6611 30.5422 27.7921C31.773 28.923 33.2865 29.4885 35.0828 29.4885C37.6773 29.4885 39.5235 28.3742 40.6212 26.1455H48.1555C47.3572 28.8066 45.827 31.0021 43.5651 32.7318C41.3031 34.4282 38.5256 35.2765 35.2324 35.2765C32.5713 35.2765 30.1763 34.6944 28.0474 33.5301C25.9518 32.3326 24.3052 30.6528 23.1077 28.4906C21.9434 26.3285 21.3613 23.8337 21.3613 21.0062C21.3613 18.1455 21.9434 15.6341 23.1077 13.4719C24.2719 11.3097 25.9019 9.64654 27.9975 8.4823C30.0931 7.31805 32.5048 6.73593 35.2324 6.73593C37.8603 6.73593 40.2054 7.30142 42.2678 8.4324C44.3634 9.56337 45.9767 11.1767 47.1077 13.2723C48.2719 15.3347 48.8541 17.7131 48.8541 20.4075ZM41.6191 18.4116C41.5859 16.6154 40.9372 15.185 39.6732 14.1206C38.4092 13.0228 36.8624 12.474 35.0329 12.474C33.3031 12.474 31.8395 13.0062 30.642 14.0707C29.4778 15.1018 28.7626 16.5488 28.4965 18.4116H41.6191Z" fill="white"/>
<path d="M25.5468 0V5.63825H16.2661V34.8274H9.28067V5.63825H0V0H25.5468Z" fill="white"/>
</svg>
